<?xml version="1.0" standalone="no"?><!DOCTYPE svg PUBLIC "-//W3C//DTD SVG 1.1//EN" "http://www.w3.org/Graphics/SVG/1.1/DTD/svg11.dtd"><svg t="1749525762880" class="icon" viewBox="0 0 1092 1024" version="1.1" xmlns="http://www.w3.org/2000/svg" p-id="13107" xmlns:xlink="http://www.w3.org/1999/xlink" width="213.28125" height="200"><path d="M716.8 0C534.801067 0 341.333333 59.8016 341.333333 170.666667v136.533333c0 18.8416 15.291733 34.133333 34.133334 34.133333s34.133333-15.291733 34.133333-34.133333v-35.566933C482.030933 317.303467 601.634133 341.333333 716.8 341.333333c115.165867 0 234.769067-24.029867 307.2-69.700266V307.2c0 33.3824-83.968 86.6304-241.800533 99.805867-18.705067 1.501867-32.699733 18.090667-31.1296 36.864a34.048 34.048 0 0 0 33.928533 31.266133c1.024 0 1.911467-0.068267 2.935467-0.136533 88.8832-7.441067 177.425067-30.446933 236.066133-67.7888V443.733333c0 29.149867-61.8496 71.0656-176.605867 91.3408a34.167467 34.167467 0 0 0-27.648 39.5264 34.176 34.176 0 0 0 33.518934 28.194134c1.979733 0 4.027733-0.136533 6.007466-0.546134 69.4272-12.219733 124.996267-32.221867 164.727467-57.617066V580.266667c0 29.149867-61.8496 71.0656-176.605867 91.3408a34.167467 34.167467 0 0 0-27.648 39.5264 34.176 34.176 0 0 0 33.518934 28.194133c1.979733 0 4.027733-0.136533 6.007466-0.546133 69.4272-12.219733 124.996267-32.290133 164.727467-57.617067V716.8c0 29.149867-61.8496 71.0656-176.605867 91.3408a34.167467 34.167467 0 0 0-27.648 39.5264 34.176 34.176 0 0 0 33.518934 28.194133c1.979733 0 4.027733-0.136533 6.007466-0.546133 69.4272-12.219733 124.996267-32.290133 164.727467-57.617067V853.333333c0 33.3824-83.968 86.6304-241.800533 99.805867-18.705067 1.501867-32.699733 18.090667-31.1296 36.864a34.048 34.048 0 0 0 33.928533 31.266133c1.024 0 1.911467-0.068267 2.935467-0.136533C939.4176 1008.4352 1092.266667 951.7056 1092.266667 853.333333V170.666667c0-110.865067-193.467733-170.666667-375.466667-170.666667z m0 273.066667c-187.528533 0-307.2-60.689067-307.2-102.4S529.271467 68.266667 716.8 68.266667s307.2 60.689067 307.2 102.4-119.671467 102.4-307.2 102.4zM375.466667 409.6c181.998933 0 375.466667 59.8016 375.466666 170.666667v273.066666c0 110.865067-193.467733 170.666667-375.466666 170.666667s-375.466667-59.8016-375.466667-170.666667V580.266667c0-110.865067 193.467733-170.666667 375.466667-170.666667z m307.2 443.733333v-35.566933C610.235733 863.4368 490.632533 887.466667 375.466667 887.466667c-115.165867 0-234.769067-24.029867-307.2-69.700267V853.333333c0 41.710933 119.671467 102.4 307.2 102.4s307.2-60.689067 307.2-102.4z m0-136.533333v-35.566933C610.235733 726.903467 490.632533 750.933333 375.466667 750.933333c-115.165867 0-234.769067-24.029867-307.2-69.700266V716.8c0 41.710933 119.671467 102.4 307.2 102.4s307.2-60.689067 307.2-102.4z m-307.2-34.133333c187.528533 0 307.2-60.689067 307.2-102.4S562.9952 477.866667 375.466667 477.866667 68.266667 538.555733 68.266667 580.266667s119.671467 102.4 307.2 102.4z" fill="#20A0FF" p-id="13108"></path></svg>