<?xml version="1.0" standalone="no"?><!DOCTYPE svg PUBLIC "-//W3C//DTD SVG 1.1//EN" "http://www.w3.org/Graphics/SVG/1.1/DTD/svg11.dtd"><svg t="1742907911271" class="icon" viewBox="0 0 1024 1024" version="1.1" xmlns="http://www.w3.org/2000/svg" p-id="8710" xmlns:xlink="http://www.w3.org/1999/xlink" width="200" height="200"><path d="M512.001023 64.303538c-246.873644 0-447.699532 200.827935-447.699532 447.701578s200.825888 447.691345 447.699532 447.691345c246.871597 0 447.697485-200.818725 447.697485-447.691345S758.87262 64.303538 512.001023 64.303538L512.001023 64.303538zM512.001023 903.737986c-211.602326 0-391.734916-180.134637-391.734916-391.739009 0-211.602326 180.13259-391.732869 391.734916-391.732869 211.597209 0 391.734916 180.131567 391.734916 391.732869C903.735939 723.599256 723.603349 903.737986 512.001023 903.737986L512.001023 903.737986zM623.923092 511.998977c17.238616 0 35.659151-11.846816 35.659151-29.742395s-18.420535-26.218128-35.659151-26.218128l-93.270267 0 0-18.651802 118.705566-128.385019c11.875468-12.966313 11.68718-33.482579-0.777713-45.830815-12.406564-12.3247-31.980365-11.871375-43.911092 1.133823l-98.955756 108.180861L400.929322 263.721357c-12.218276-12.678764-31.91385-12.612249-44.066635 0.067538-12.160971 12.669554-12.748349 33.18889-0.564865 45.840024l118.393457 127.757732 0 18.651802-93.270267 0c-17.202801 0-33.379225 8.323573-33.379225 26.218128s16.176424 29.742395 33.379225 29.742395l93.270267 0 0 74.614371-93.270267 0c-17.202801 0-33.379225 7.396457-33.379225 25.324782 0 17.924231 16.176424 30.637788 33.379225 30.637788l93.270267 0 0 93.27743c0 17.923208 10.79281 37.300534 27.997658 37.300534 17.204847 0 27.963888-19.378349 27.963888-37.300534l0-93.27743 93.270267 0c17.234523 0 35.659151-12.712533 35.659151-30.637788 0-17.928325-18.424628-25.324782-35.659151-25.324782l-93.270267 0 0-74.614371L623.923092 511.998977 623.923092 511.998977z" fill="#262535" p-id="8711"></path><path d="M228.40706 198.163245l606.757131 606.757131-39.571251 39.576367L188.833763 237.735519 228.40706 198.163245z" fill="#262535" p-id="8712"></path></svg>