<svg xmlns="http://www.w3.org/2000/svg" xmlns:xlink="http://www.w3.org/1999/xlink" fill="none" version="1.1" width="40" height="40" viewBox="0 0 40 40"><g><g><path d="M40,33.352L40,33.6C40,37.1346,37.1346,40,33.6,40L6.40003,40C2.8654,40,0,37.1346,0,33.6L0,6.40003C-0.0000206466,2.8654,2.86536,0,6.39999,0L33.6,0C37.1346,0,40,2.86537,40,6.39999L40,33.352Z" fill="#000000" fill-opacity="1"/></g><g><path d="M32.6154,18.46154L32.6154,27.6923C32.6154,28.9668,31.5822,30,30.3077,30L10.307690000000001,30C9.03319,30,8.000000240711,28.9668,8.000000481422,27.6923L8.000000481422,18.46154L32.6154,18.46154ZM15.692309999999999,23.8462L11.84615,23.8462L11.84615,26.1538L15.692309999999999,26.1538L15.692309999999999,23.8462ZM30.3077,10.000000481422C31.5822,10.000000481422,32.6154,11.03319,32.6154,12.307690000000001L32.6154,16.15385L8.000000481422,16.15385L8.000000481422,12.307690000000001C8.000000240711,11.03319,9.03319,10.000000481422,10.307690000000001,10.000000962844L30.3077,10.000000481422Z" fill="#FFFFFF" fill-opacity="1"/></g></g></svg>